<svg xmlns="http://www.w3.org/2000/svg" viewBox="0 16 382.7 351" preserveAspectRatio="xMidYMin slice" width="100">
    <g fill="currentColor">
        <path d="M286.642,224.767c-1.276,2.925-4.169,4.811-7.36,4.8c-3.21-0.003-6.108-1.924-7.36-4.88l-14.4-33.92
		l-19.76,85.92c-0.821,3.488-3.86,6.004-7.44,6.16c-3.629,0.166-6.914-2.134-8-5.6l-44.88-140.8l-24,92.96
		c-1.082,4.284-5.432,6.879-9.716,5.797c-2.295-0.58-4.215-2.146-5.244-4.277l-22.48-46.16h-96c26.32,42.72,72,76.64,111.12,116.96
		c34.4,35.04,60.08,63.52,60.08,63.52s25.68-28.48,59.52-63.28c42.72-44.08,93.28-80.48,117.92-129.04h-59.44L286.642,224.767z"/>
        <path d="M280.322,17.247c-68-2.4-89.12,63.12-89.12,63.12s-21.12-65.52-89.12-63.04s-114.72,67.84-99.04,128
		c2.184,8.255,5.13,16.289,8.8,24h109.44c3.059-0.006,5.854,1.733,7.2,4.48l14.72,30.64l25.28-98.88
		c1.097-4.28,5.456-6.86,9.736-5.764c2.656,0.681,4.779,2.675,5.624,5.284l44.48,139.52l18.88-81.52
		c0.947-4.316,5.213-7.047,9.528-6.1c2.551,0.56,4.668,2.329,5.672,4.74l16.8,39.6l17.2-39.6c1.276-2.925,4.169-4.811,7.36-4.8h72
		c1.44-3.84,2.64-8,3.68-11.92C394.962,85.087,348.242,19.727,280.322,17.247L280.322,17.247z"/>
    </g>
</svg>